#!OML:ASF X:\für Bonn\!DataBase\2005_08_11_Bastian_Final\c3d\Bastian.ASF
:FULLY-SPECIFIED
:DEGREES
101
root -0.66483 16.88 20.3731 -919.652 -32.1061 -176.114
lowerback 44.7609 3.56867 -1.4774
upperback 21.4774 -4.16742 -3.03445
thorax 3.20214 -5.09089 -1.28143
lowerneck -6.74459 -12.2621 -15.1498
upperneck -16.6087 -15.7574 19.6012
head -0.898626 -8.68974 7.94436
rclavicle -1.11319e-013 -1.00187e-013
rhumerus -12.0844 13.1745 -87.2351
rradius 49.1455
rwrist -0.651233
rhand -12.9553 4.59104
rfingers 7.12502
rthumb 13.1363 -24.9752
lclavicle -1.11319e-013 -1.00187e-013
lhumerus -0.973473 -12.8586 65.7767
lradius 27.9821
lwrist 22.2317
lhand -16.5641 -9.6727
lfingers 7.12502
lthumb 9.65591 20.086
rfemur -6.79726 -13.466 21.7666
rtibia 41.1275
rfoot -11.3153 -11.4747
rtoes 2.19883
lfemur -10.115 -3.0659 -13.15
ltibia 49.5812
lfoot -6.19394 -8.91587
ltoes -34.7082
102
root -0.624198 16.8458 20.3839 -919.569 -32.4023 -175.964
lowerback 45.5919 3.62087 -1.30499
upperback 21.559 -4.19554 -2.96697
thorax 3.09977 -5.13274 -1.26786
lowerneck -6.52882 -12.2865 -15.0571
upperneck -17.1538 -15.8064 19.8119
head -1.0665 -8.77314 8.0367
rclavicle -1.01778e-013 -6.99722e-014
rhumerus -11.574 13.3625 -86.803
rradius 49.4816
rwrist -0.720752
rhand -13.1221 4.66589
rfingers 7.12502
rthumb 12.9755 -24.9106
lclavicle -1.01778e-013 -6.99722e-014
lhumerus -0.478559 -13.1459 65.4037
lradius 27.7134
lwrist 22.1204
lhand -16.6779 -9.61438
lfingers 7.12502
lthumb 9.54615 20.1494
rfemur -7.46624 -14.0056 21.9007
rtibia 41.7992
rfoot -11.3753 -11.3209
rtoes 2.49139
lfemur -11.3467 -2.39177 -13.1917
ltibia 50.109
lfoot -6.02762 -9.03908
ltoes -34.6798
103
root -0.583154 16.81 20.3943 -919.437 -32.6789 -175.793
lowerback 46.3476 3.67496 -1.13338
upperback 21.657 -4.21457 -2.89548
thorax 3.04125 -5.16964 -1.25742
lowerneck -6.36067 -12.3137 -14.992
upperneck -17.7015 -15.8516 20.0612
head -1.22172 -8.85662 8.14313
rclavicle 1.28812e-013 1.38354e-013
rhumerus -11.0417 13.4376 -86.4048
rradius 49.8292
rwrist -0.665295
rhand -13.313 4.72263
rfingers 7.12502
rthumb 12.7915 -24.8655
lclavicle 1.28812e-013 1.38354e-013
lhumerus 0.0580313 -13.3315 65.0201
lradius 27.4329
lwrist 21.9479
lhand -16.7631 -9.52533
lfingers 7.12502
lthumb 9.46391 20.2422
rfemur -8.22358 -14.5104 22.0941
rtibia 42.5069
rfoot -11.4619 -11.2189
rtoes 2.82775
lfemur -12.5899 -1.63849 -13.246
ltibia 50.454
lfoot -5.99789 -9.28996
ltoes -34.2175
104
root -0.538834 16.7733 20.4063 -919.307 -32.9697 -175.64
lowerback 48.1401 3.74733 -1.01358
upperback 20.8912 -4.27083 -2.74959
thorax 2.85895 -5.21444 -1.21107
lowerneck -6.23583 -12.3427 -14.9361
upperneck -18.2524 -15.8928 20.3475
head -1.36663 -8.94156 8.26075
rclavicle -5.08889e-014 4.77083e-015
rhumerus -10.4569 13.3953 -86.0342
rradius 50.1438
rwrist -0.578509
rhand -13.39 4.86225
rfingers 7.12502
rthumb 12.7172 -24.7305
lclavicle -5.08889e-014 4.77083e-015
lhumerus 0.643387 -13.4849 64.5731
lradius 27.1309
lwrist 21.7849
lhand -16.7394 -9.48888
lfingers 7.12502
lthumb 9.48681 20.2776
rfemur -8.99232 -14.9818 22.2892
rtibia 43.2402
rfoot -11.5943 -11.1391
rtoes 3.17258
lfemur -13.8047 -0.826448 -13.3529
ltibia 50.6271
lfoot -6.02668 -9.64813
ltoes -33.4936
105
root -0.495242 16.7356 20.4181 -919.148 -33.2256 -175.472
lowerback 48.9363 3.81487 -0.847673
upperback 20.9514 -4.2757 -2.67998
thorax 2.82248 -5.2458 -1.20672
lowerneck -6.10995 -12.3745 -14.8899
upperneck -18.8089 -15.9338 20.6519
head -1.51029 -9.02885 8.38695
rclavicle -1.09729e-013 3.18055e-015
rhumerus -9.90566 13.3002 -85.6468
rradius 50.5177
rwrist -0.486761
rhand -13.501 4.98261
rfingers 7.12502
rthumb 12.6102 -24.6168
lclavicle -1.09729e-013 3.18055e-015
lhumerus 1.27584 -13.5793 64.1303
lradius 26.7591
lwrist 21.4999
lhand -16.7525 -9.41244
lfingers 7.12502
lthumb 9.47412 20.3546
rfemur -9.82589 -15.3976 22.5353
rtibia 43.9833
rfoot -11.7035 -11.1008
rtoes 3.48468
lfemur -15.0063 0.0584658 -13.4853
ltibia 50.6368
lfoot -6.06444 -10.1876
ltoes -33.1221
106
root -0.453189 16.697 20.4308 -918.977 -33.4861 -175.295
lowerback 49.7147 3.86718 -0.671952
upperback 21.0125 -4.28942 -2.60181
thorax 2.79703 -5.28057 -1.19546
lowerneck -6.06316 -12.4122 -14.8866
upperneck -19.2932 -15.9734 20.9546
head -1.61723 -9.1083 8.50954
rclavicle 3.81667e-014 5.56597e-014
rhumerus -9.32514 13.2656 -85.2179
rradius 50.8561
rwrist -0.489213
rhand -13.6385 5.11549
rfingers 7.12502
rthumb 12.4777 -24.492
lclavicle 3.81667e-014 5.56597e-014
lhumerus 1.90641 -13.7406 63.6671
lradius 26.4032
lwrist 21.2545
lhand -16.7571 -9.33768
lfingers 7.12502
lthumb 9.46975 20.4296
rfemur -10.6801 -15.7782 22.7958
rtibia 44.7357
rfoot -11.8363 -11.0805
rtoes 4.01721
lfemur -16.1677 0.896269 -13.673
ltibia 50.4909
lfoot -5.99959 -10.8317
ltoes -32.3461
107
root -0.414888 16.6578 20.4437 -918.811 -33.7311 -175.117
lowerback 50.485 3.89967 -0.469547
upperback 21.0713 -4.31206 -2.54388
thorax 2.77417 -5.31472 -1.21471
lowerneck -6.00674 -12.4487 -14.858
upperneck -19.7694 -16.0118 21.2472
head -1.72654 -9.18905 8.62661
rclavicle 3.49861e-014 -2.54444e-014
rhumerus -8.78642 13.1944 -84.8173
rradius 51.1846
rwrist -0.46307
rhand -13.8504 5.31226
rfingers 7.12502
rthumb 12.2734 -24.3076
lclavicle 3.49861e-014 -2.54444e-014
lhumerus 2.55011 -13.8998 63.177
lradius 26.0209
lwrist 21.0616
lhand -16.7551 -9.20465
lfingers 7.12502
lthumb 9.47163 20.5625
rfemur -11.5291 -16.176 23.0517
rtibia 45.5052
rfoot -11.998 -11.0692
rtoes 4.20946
lfemur -17.3118 1.67678 -13.9076
ltibia 50.2094
lfoot -5.83983 -11.4956
ltoes -31.0044
108
root -0.381493 16.6182 20.4563 -918.617 -33.9756 -174.978
lowerback 51.238 3.92397 -0.295429
upperback 21.1233 -4.35066 -2.47535
thorax 2.75414 -5.35902 -1.20395
lowerneck -6.01267 -12.4836 -14.9121
upperneck -20.1711 -16.0372 21.5531
head -1.79768 -9.25348 8.75214
rclavicle -6.20208e-014 3.49861e-014
rhumerus -8.23703 13.2483 -84.3132
rradius 51.5267
rwrist -0.508884
rhand -14.0273 5.42542
rfingers 7.12502
rthumb 12.1028 -24.2045
lclavicle -6.20208e-014 3.49861e-014
lhumerus 3.15177 -13.9673 62.7649
lradius 25.6279
lwrist 20.7943
lhand -16.8238 -9.05233
lfingers 7.12502
lthumb 9.40533 20.7178
rfemur -12.3887 -16.5745 23.2568
rtibia 46.2916
rfoot -12.1979 -11.0104
rtoes 4.66281
lfemur -18.4021 2.48337 -14.2732
ltibia 49.8158
lfoot -5.83035 -12.0575
ltoes -31.0268
109
root -0.352268 16.5764 20.4698 -918.377 -34.2226 -174.887
lowerback 51.9228 3.93296 -0.132222
upperback 21.1962 -4.4088 -2.44104
thorax 2.76797 -5.40963 -1.22109
lowerneck -6.00431 -12.4836 -14.8682
upperneck -20.5987 -16.0248 21.7888
head -1.90178 -9.30392 8.85063
rclavicle 6.04305e-014 -1.59028e-015
rhumerus -7.68182 13.2689 -83.8584
rradius 51.8463
rwrist -0.549745
rhand -14.2386 5.60684
rfingers 7.12502
rthumb 11.8991 -24.035
lclavicle 6.04305e-014 -1.59028e-015
lhumerus 3.77218 -14.1047 62.2866
lradius 25.272
lwrist 20.6289
lhand -16.9015 -8.8054
lfingers 7.12502
lthumb 9.33034 20.9681
rfemur -13.281 -16.9939 23.4016
rtibia 47.0945
rfoot -12.382 -10.888
rtoes 5.12833
lfemur -19.4341 3.10718 -14.7398
ltibia 49.3403
lfoot -5.86826 -12.4759
ltoes -31.0002
110
root -0.323845 16.5337 20.4829 -918.169 -34.4563 -174.778
lowerback 52.6205 3.94536 0.0352415
upperback 21.2693 -4.46355 -2.39743
thorax 2.78718 -5.46065 -1.23141
lowerneck -6.13438 -12.5071 -14.8026
upperneck -20.8859 -16.0394 21.9669
head -1.94741 -9.35461 8.90485
rclavicle -8.11041e-014 -1.59028e-014
rhumerus -7.13351 13.3556 -83.3534
rradius 52.1575
rwrist -0.568315
rhand -14.4987 5.73872
rfingers 7.12502
rthumb 11.6482 -23.9175
lclavicle -8.11041e-014 -1.59028e-014
lhumerus 4.3872 -14.1731 61.8355
lradius 24.8857
lwrist 20.4219
lhand -17.0366 -8.57768
lfingers 7.12502
lthumb 9.20004 21.2016
rfemur -14.146 -17.3955 23.5713
rtibia 47.8904
rfoot -12.5643 -10.817
rtoes 5.23591
lfemur -20.3576 3.54976 -15.2065
ltibia 48.8033
lfoot -5.89671 -12.8163
ltoes -30.7885
111
root -0.295313 16.49 20.4971 -917.998 -34.6907 -174.648
lowerback 53.3323 3.93938 0.229737
upperback 21.3494 -4.53201 -2.34945
thorax 2.81845 -5.51866 -1.24522
lowerneck -6.18343 -12.502 -14.7783
upperneck -21.2638 -16.0153 22.1865
head -2.03037 -9.39437 8.99594
rclavicle 4.77083e-015 9.62118e-014
rhumerus -6.57295 13.402 -82.8512
rradius 52.4518
rwrist -0.542656
rhand -14.7508 5.88867
rfingers 7.12502
rthumb 11.4051 -23.7812
lclavicle 4.77083e-015 9.62118e-014
lhumerus 4.99299 -14.2629 61.3695
lradius 24.5694
lwrist 20.277
lhand -17.2079 -8.30922
lfingers 7.12502
lthumb 9.03474 21.4773
rfemur -14.9755 -17.75 23.7621
rtibia 48.6749
rfoot -12.7716 -10.7588
rtoes 5.62667
lfemur -21.2369 3.94296 -15.6818
ltibia 48.2353
lfoot -5.87042 -13.1007
ltoes -30.55
112
root -0.268296 16.448 20.5113 -917.885 -34.8824 -174.446
lowerback 54.0783 3.93473 0.479659
upperback 21.4211 -4.57383 -2.28524
thorax 2.84374 -5.56171 -1.27438
lowerneck -6.32998 -12.5223 -14.7035
upperneck -21.5711 -16.0281 22.3369
head -2.08425 -9.44612 9.04194
rclavicle 7.15625e-014 2.78299e-014
rhumerus -5.98306 13.4773 -82.3082
rradius 52.744
rwrist -0.548075
rhand -15.0038 5.94267
rfingers 7.12502
rthumb 11.1611 -23.7405
lclavicle 7.15625e-014 2.78299e-014
lhumerus 5.64523 -14.3962 60.8897
lradius 24.233
lwrist 20.1779
lhand -17.3963 -8.04259
lfingers 7.12502
lthumb 8.85289 21.7517
rfemur -15.7766 -18.0933 24.0226
rtibia 49.4352
rfoot -12.9645 -10.7089
rtoes 5.99065
lfemur -22.0591 4.33049 -16.0904
ltibia 47.667
lfoot -5.81438 -13.3906
ltoes -30.3526
